# xmcd
#
# Track frame offsets:
#	150
#	10675
#	22627
#	40052
#	52750
#	62455
#	73027
#	86487
#	98952
#	111515
#	122382
#	134052
#
# Disc length: 1936 seconds
#
# Revision: 3
# Processed by: cddbd v1.4PL0 Copyright (c) Steve Scherf et al.
# Submitted via: audiograbber 1.82.02
#
DISCID=90078e0c
DTITLE=Various Artist - Sunday Times Music Collection - Guitar Men
DYEAR=1994
DGENRE=Blues
TTITLE0=Duane Eddy - Rebel Rouser
TTITLE1=Jeff beck - Steelin'
TTITLE2=Albert Lee - The Next Milestone
TTITLE3=Jimmy Page and Eric Clapton - Freight Loader
TTITLE4=Eric Clapton - Tribute To Elmore
TTITLE5=Buddy Guy - First Time I Met The Blues
TTITLE6=Mick Green and the Pirates - Peter Gunn
TTITLE7=Mick Taylor - Living In The Laid Back
TTITLE8=Elmore James - The Sky Is Crying
TTITLE9=Chuck Berry - Roll Over Beethoven
TTITLE10=Jimi Hendrix - Sweet Thang
TTITLE11=John Lee Hooker - Boom Boom
EXTD=revised Oct 2003
EXTT0=Duane Eddy
EXTT1=Jeff Beck
EXTT2=Albert Lee
EXTT3=Jimmy Page and Eric Clapton
EXTT4=Eric Clapton
EXTT5=Buddy Guy
EXTT6=Mick Green and The Pirates
EXTT7=Mick Taylor
EXTT8=Elmore James
EXTT9=Chuck Berry
EXTT10=Jimi Hendrix
EXTT11=John Lee Hooker
PLAYORDER=
